<?xml version="1.0"?>
 <!-- Generator: Adobe Illustrator 17.1.0, SVG Export Plug-In . SVG Version: 6.00 Build 0) --> <svg version="1.1" id="Layer_1" xmlns="http://www.w3.org/2000/svg" xmlns:xlink="http://www.w3.org/1999/xlink" x="0px" y="0px" viewBox="0 0 216 216" enable-background="new 0 0 216 216" xml:space="preserve" width="216" height="216"> <linearGradient id="SVGID_1_" gradientUnits="userSpaceOnUse" x1="47.1675" y1="48.6288" x2="168.412" y2="169.8733"> <stop offset="0" style="stop-color:#E6E6E6"></stop> <stop offset="0.5" style="stop-color:#F7F7F7"></stop> <stop offset="1" style="stop-color:#C4C4C4"></stop> </linearGradient> <path fill="url(#SVGID_1_)" d="M195.127,76.062c0.119-0.452-0.072-0.938-0.508-1.15l-26.195-4.5 c-0.136-0.068-1.286-0.103-1.438-0.103h-39.668h-1.469H90.946h-1.379H49.099c-0.135,0-1.267,0.027-1.392,0.079l-26.699,4.5 c-0.463,0.198-0.683,0.703-0.556,1.177c-0.022,0.085-0.052,0.167-0.052,0.259v16.56v16.559c0,0.023,0.012,0.043,0.014,0.065 c-0.002,0.023-0.014,0.043-0.014,0.066v16.56v16.559c0,0.552,0.447,1,1,1h57.527c0.01,0,0.019-0.006,0.028-0.006 c0.01,0,0.019,0.006,0.028,0.006h57.528c0.024,0,0.045-0.013,0.069-0.014c0.024,0.001,0.045,0.014,0.069,0.014h57.528 c0.553,0,1-0.448,1-1v-16.559v-16.56c0-0.023-0.012-0.043-0.014-0.066c0.002-0.022,0.014-0.042,0.014-0.065V92.883v-16.56 C195.18,76.231,195.15,76.147,195.127,76.062z"></path> <g> <polygon fill="none" points="48.303,72.323 30.386,75.338 78.252,75.338 85.055,72.323 "></polygon> <rect x="187" y="131" fill="none" width="2" height="7"></rect> <rect x="181" y="131" fill="none" width="2" height="7"></rect> <polygon fill="none" points="167.754,72.323 131.545,72.323 137.562,75.338 185.72,75.338 "></polygon> <rect x="66" y="81" fill="none" width="2" height="7"></rect> <path fill="none" d="M22.4,91.898h55.527v-4.423v-4.98v-5.156H22.4V91.898z M71,80.5c0-0.276,0.225-0.5,0.501-0.5h2.998 C74.775,80,75,80.224,75,80.5v8c0,0.276-0.225,0.5-0.501,0.5h-2.998C71.225,89,71,88.776,71,88.5V80.5z M65,80.5 c0-0.276,0.224-0.5,0.5-0.5h3c0.276,0,0.5,0.224,0.5,0.5v8c0,0.276-0.224,0.5-0.5,0.5h-3c-0.276,0-0.5-0.224-0.5-0.5V80.5z M32.303,83.616c0.759,0,1.375,0.615,1.375,1.375c0,0.76-0.616,1.375-1.375,1.375c-0.76,0-1.375-0.615-1.375-1.375 C30.928,84.231,31.543,83.616,32.303,83.616z M27.424,83.616c0.761,0,1.376,0.615,1.376,1.375c0,0.76-0.615,1.375-1.376,1.375 c-0.759,0-1.375-0.615-1.375-1.375C26.049,84.231,26.665,83.616,27.424,83.616z"></path> <path fill="none" d="M137.651,141.706h55.528v-4.789v-4.981v-4.789h-55.528V141.706z M186,130.5c0-0.276,0.225-0.5,0.501-0.5h2.998 c0.276,0,0.501,0.224,0.501,0.5v8c0,0.276-0.225,0.5-0.501,0.5h-2.998c-0.276,0-0.501-0.224-0.501-0.5V130.5z M180,130.5 c0-0.276,0.224-0.5,0.5-0.5h3c0.276,0,0.5,0.224,0.5,0.5v8c0,0.276-0.224,0.5-0.5,0.5h-3c-0.276,0-0.5-0.224-0.5-0.5V130.5z M147.303,133.616c0.759,0,1.375,0.615,1.375,1.375c0,0.76-0.616,1.375-1.375,1.375c-0.76,0-1.375-0.615-1.375-1.375 C145.928,134.231,146.543,133.616,147.303,133.616z M142.424,133.616c0.761,0,1.376,0.615,1.376,1.375 c0,0.76-0.615,1.375-1.376,1.375c-0.759,0-1.375-0.615-1.375-1.375C141.049,134.231,141.665,133.616,142.424,133.616z"></path> <rect x="187" y="114" fill="none" width="2" height="7"></rect> <rect x="72" y="81" fill="none" width="2" height="7"></rect> <path fill="none" d="M79.984,91.898h55.528v-4.423v-4.98v-5.156H79.984V91.898z M129,80.5c0-0.276,0.225-0.5,0.501-0.5h2.998 c0.276,0,0.501,0.224,0.501,0.5v8c0,0.276-0.225,0.5-0.501,0.5h-2.998c-0.276,0-0.501-0.224-0.501-0.5V80.5z M123,80.5 c0-0.276,0.224-0.5,0.5-0.5h3c0.276,0,0.5,0.224,0.5,0.5v8c0,0.276-0.224,0.5-0.5,0.5h-3c-0.276,0-0.5-0.224-0.5-0.5V80.5z M90.303,83.616c0.759,0,1.375,0.615,1.375,1.375c0,0.76-0.616,1.375-1.375,1.375c-0.76,0-1.375-0.615-1.375-1.375 C88.928,84.231,89.543,83.616,90.303,83.616z M85.424,83.616c0.761,0,1.376,0.615,1.376,1.375c0,0.76-0.615,1.375-1.376,1.375 c-0.759,0-1.375-0.615-1.375-1.375C84.049,84.231,84.665,83.616,85.424,83.616z"></path> <rect x="130" y="131" fill="none" width="2" height="7"></rect> <path fill="none" d="M79.984,108.456h55.528v-4.789v-4.98v-4.789H79.984V108.456z M129,97.5c0-0.276,0.225-0.5,0.501-0.5h2.998 c0.276,0,0.501,0.224,0.501,0.5v8c0,0.276-0.225,0.5-0.501,0.5h-2.998c-0.276,0-0.501-0.224-0.501-0.5V97.5z M123,97.5 c0-0.276,0.224-0.5,0.5-0.5h3c0.276,0,0.5,0.224,0.5,0.5v8c0,0.276-0.224,0.5-0.5,0.5h-3c-0.276,0-0.5-0.224-0.5-0.5V97.5z M90.303,100.616c0.759,0,1.375,0.615,1.375,1.375c0,0.76-0.616,1.375-1.375,1.375c-0.76,0-1.375-0.615-1.375-1.375 C88.928,101.231,89.543,100.616,90.303,100.616z M85.424,100.616c0.761,0,1.376,0.615,1.376,1.375c0,0.76-0.615,1.375-1.376,1.375 c-0.759,0-1.375-0.615-1.375-1.375C84.049,101.231,84.665,100.616,85.424,100.616z"></path> <rect x="130" y="114" fill="none" width="2" height="7"></rect> <rect x="124" y="114" fill="none" width="2" height="7"></rect> <rect x="124" y="98" fill="none" width="2" height="7"></rect> <path fill="none" d="M79.984,125.147h55.528v-4.423v-4.98v-5.156H79.984V125.147z M129,113.5c0-0.276,0.225-0.5,0.501-0.5h2.998 c0.276,0,0.501,0.224,0.501,0.5v8c0,0.276-0.225,0.5-0.501,0.5h-2.998c-0.276,0-0.501-0.224-0.501-0.5V113.5z M123,113.5 c0-0.276,0.224-0.5,0.5-0.5h3c0.276,0,0.5,0.224,0.5,0.5v8c0,0.276-0.224,0.5-0.5,0.5h-3c-0.276,0-0.5-0.224-0.5-0.5V113.5z M90.303,116.616c0.759,0,1.375,0.615,1.375,1.375c0,0.76-0.616,1.375-1.375,1.375c-0.76,0-1.375-0.615-1.375-1.375 C88.928,117.231,89.543,116.616,90.303,116.616z M85.424,116.616c0.761,0,1.376,0.615,1.376,1.375c0,0.76-0.615,1.375-1.376,1.375 c-0.759,0-1.375-0.615-1.375-1.375C84.049,117.231,84.665,116.616,85.424,116.616z"></path> <path fill="none" d="M79.984,141.706h55.528v-4.789v-4.981v-4.789H79.984V141.706z M129,130.5c0-0.276,0.225-0.5,0.501-0.5h2.998 c0.276,0,0.501,0.224,0.501,0.5v8c0,0.276-0.225,0.5-0.501,0.5h-2.998c-0.276,0-0.501-0.224-0.501-0.5V130.5z M123,130.5 c0-0.276,0.224-0.5,0.5-0.5h3c0.276,0,0.5,0.224,0.5,0.5v8c0,0.276-0.224,0.5-0.5,0.5h-3c-0.276,0-0.5-0.224-0.5-0.5V130.5z M90.303,133.616c0.759,0,1.375,0.615,1.375,1.375c0,0.76-0.616,1.375-1.375,1.375c-0.76,0-1.375-0.615-1.375-1.375 C88.928,134.231,89.543,133.616,90.303,133.616z M85.424,133.616c0.761,0,1.376,0.615,1.376,1.375c0,0.76-0.615,1.375-1.376,1.375 c-0.759,0-1.375-0.615-1.375-1.375C84.049,134.231,84.665,133.616,85.424,133.616z"></path> <rect x="124" y="81" fill="none" width="2" height="7"></rect> <rect x="130" y="81" fill="none" width="2" height="7"></rect> <rect x="124" y="131" fill="none" width="2" height="7"></rect> <path fill="none" d="M22.4,108.456h55.527v-4.789v-4.98v-4.789H22.4V108.456z M71,97.5c0-0.276,0.225-0.5,0.501-0.5h2.998 C74.775,97,75,97.224,75,97.5v8c0,0.276-0.225,0.5-0.501,0.5h-2.998c-0.276,0-0.501-0.224-0.501-0.5V97.5z M65,97.5 c0-0.276,0.224-0.5,0.5-0.5h3c0.276,0,0.5,0.224,0.5,0.5v8c0,0.276-0.224,0.5-0.5,0.5h-3c-0.276,0-0.5-0.224-0.5-0.5V97.5z M32.303,100.616c0.759,0,1.375,0.615,1.375,1.375c0,0.76-0.616,1.375-1.375,1.375c-0.76,0-1.375-0.615-1.375-1.375 C30.928,101.231,31.543,100.616,32.303,100.616z M27.424,100.616c0.761,0,1.376,0.615,1.376,1.375c0,0.76-0.615,1.375-1.376,1.375 c-0.759,0-1.375-0.615-1.375-1.375C26.049,101.231,26.665,100.616,27.424,100.616z"></path> <rect x="72" y="98" fill="none" width="2" height="7"></rect> <rect x="181" y="114" fill="none" width="2" height="7"></rect> <rect x="72" y="131" fill="none" width="2" height="7"></rect> <path fill="none" d="M137.651,108.456h55.528v-4.789v-4.98v-4.789h-55.528V108.456z M186,97.5c0-0.276,0.225-0.5,0.501-0.5h2.998 c0.276,0,0.501,0.224,0.501,0.5v8c0,0.276-0.225,0.5-0.501,0.5h-2.998c-0.276,0-0.501-0.224-0.501-0.5V97.5z M180,97.5 c0-0.276,0.224-0.5,0.5-0.5h3c0.276,0,0.5,0.224,0.5,0.5v8c0,0.276-0.224,0.5-0.5,0.5h-3c-0.276,0-0.5-0.224-0.5-0.5V97.5z M147.303,100.616c0.759,0,1.375,0.615,1.375,1.375c0,0.76-0.616,1.375-1.375,1.375c-0.76,0-1.375-0.615-1.375-1.375 C145.928,101.231,146.543,100.616,147.303,100.616z M142.424,100.616c0.761,0,1.376,0.615,1.376,1.375 c0,0.76-0.615,1.375-1.376,1.375c-0.759,0-1.375-0.615-1.375-1.375C141.049,101.231,141.665,100.616,142.424,100.616z"></path> <rect x="181" y="81" fill="none" width="2" height="7"></rect> <polygon fill="none" points="133.247,75.338 127.594,72.323 89.188,72.323 82.682,75.338 "></polygon> <rect x="66" y="131" fill="none" width="2" height="7"></rect> <path fill="none" d="M137.651,91.898h55.528v-4.423v-4.98v-5.156h-55.528V91.898z M186,80.5c0-0.276,0.225-0.5,0.501-0.5h2.998 c0.276,0,0.501,0.224,0.501,0.5v8c0,0.276-0.225,0.5-0.501,0.5h-2.998c-0.276,0-0.501-0.224-0.501-0.5V80.5z M180,80.5 c0-0.276,0.224-0.5,0.5-0.5h3c0.276,0,0.5,0.224,0.5,0.5v8c0,0.276-0.224,0.5-0.5,0.5h-3c-0.276,0-0.5-0.224-0.5-0.5V80.5z M147.303,83.616c0.759,0,1.375,0.615,1.375,1.375c0,0.76-0.616,1.375-1.375,1.375c-0.76,0-1.375-0.615-1.375-1.375 C145.928,84.231,146.543,83.616,147.303,83.616z M142.424,83.616c0.761,0,1.376,0.615,1.376,1.375c0,0.76-0.615,1.375-1.376,1.375 c-0.759,0-1.375-0.615-1.375-1.375C141.049,84.231,141.665,83.616,142.424,83.616z"></path> <rect x="187" y="81" fill="none" width="2" height="7"></rect> <rect x="130" y="98" fill="none" width="2" height="7"></rect> <path fill="none" d="M137.651,125.147h55.528v-4.423v-4.98v-5.156h-55.528V125.147z M186,113.5c0-0.276,0.225-0.5,0.501-0.5h2.998 c0.276,0,0.501,0.224,0.501,0.5v8c0,0.276-0.225,0.5-0.501,0.5h-2.998c-0.276,0-0.501-0.224-0.501-0.5V113.5z M180,113.5 c0-0.276,0.224-0.5,0.5-0.5h3c0.276,0,0.5,0.224,0.5,0.5v8c0,0.276-0.224,0.5-0.5,0.5h-3c-0.276,0-0.5-0.224-0.5-0.5V113.5z M147.303,116.616c0.759,0,1.375,0.615,1.375,1.375c0,0.76-0.616,1.375-1.375,1.375c-0.76,0-1.375-0.615-1.375-1.375 C145.928,117.231,146.543,116.616,147.303,116.616z M142.424,116.616c0.761,0,1.376,0.615,1.376,1.375 c0,0.76-0.615,1.375-1.376,1.375c-0.759,0-1.375-0.615-1.375-1.375C141.049,117.231,141.665,116.616,142.424,116.616z"></path> <path fill="none" d="M22.4,125.147h55.527v-4.423v-4.98v-5.156H22.4V125.147z M71,113.5c0-0.276,0.225-0.5,0.501-0.5h2.998 c0.276,0,0.501,0.224,0.501,0.5v8c0,0.276-0.225,0.5-0.501,0.5h-2.998c-0.276,0-0.501-0.224-0.501-0.5V113.5z M65,113.5 c0-0.276,0.224-0.5,0.5-0.5h3c0.276,0,0.5,0.224,0.5,0.5v8c0,0.276-0.224,0.5-0.5,0.5h-3c-0.276,0-0.5-0.224-0.5-0.5V113.5z M32.303,116.616c0.759,0,1.375,0.615,1.375,1.375c0,0.76-0.616,1.375-1.375,1.375c-0.76,0-1.375-0.615-1.375-1.375 C30.928,117.231,31.543,116.616,32.303,116.616z M27.424,116.616c0.761,0,1.376,0.615,1.376,1.375c0,0.76-0.615,1.375-1.376,1.375 c-0.759,0-1.375-0.615-1.375-1.375C26.049,117.231,26.665,116.616,27.424,116.616z"></path> <rect x="66" y="98" fill="none" width="2" height="7"></rect> <rect x="187" y="98" fill="none" width="2" height="7"></rect> <rect x="72" y="114" fill="none" width="2" height="7"></rect> <path fill="none" d="M22.4,141.706h55.527v-4.789v-4.981v-4.789H22.4V141.706z M71,130.5c0-0.276,0.225-0.5,0.501-0.5h2.998 c0.276,0,0.501,0.224,0.501,0.5v8c0,0.276-0.225,0.5-0.501,0.5h-2.998c-0.276,0-0.501-0.224-0.501-0.5V130.5z M65,130.5 c0-0.276,0.224-0.5,0.5-0.5h3c0.276,0,0.5,0.224,0.5,0.5v8c0,0.276-0.224,0.5-0.5,0.5h-3c-0.276,0-0.5-0.224-0.5-0.5V130.5z M32.303,133.616c0.759,0,1.375,0.615,1.375,1.375c0,0.76-0.616,1.375-1.375,1.375c-0.76,0-1.375-0.615-1.375-1.375 C30.928,134.231,31.543,133.616,32.303,133.616z M27.424,133.616c0.761,0,1.376,0.615,1.376,1.375c0,0.76-0.615,1.375-1.376,1.375 c-0.759,0-1.375-0.615-1.375-1.375C26.049,134.231,26.665,133.616,27.424,133.616z"></path> <rect x="181" y="98" fill="none" width="2" height="7"></rect> <rect x="66" y="114" fill="none" width="2" height="7"></rect> <path d="M195.127,76.076c0.119-0.452-0.072-0.938-0.508-1.15l-26.195-4.5c-0.136-0.068-1.286-0.103-1.438-0.103h-39.668h-1.469 H90.946h-1.379H49.099c-0.135,0-1.267,0.027-1.392,0.079l-26.699,4.5c-0.463,0.198-0.683,0.703-0.556,1.177 c-0.022,0.085-0.052,0.167-0.052,0.259v16.56v16.559c0,0.023,0.012,0.043,0.014,0.065c-0.002,0.023-0.014,0.043-0.014,0.066v16.56 v16.559c0,0.552,0.447,1,1,1h57.527c0.01,0,0.019-0.006,0.028-0.006c0.01,0,0.019,0.006,0.028,0.006h57.528 c0.024,0,0.045-0.013,0.069-0.014c0.024,0.001,0.045,0.014,0.069,0.014h57.528c0.553,0,1-0.448,1-1v-16.559v-16.56 c0-0.023-0.012-0.043-0.014-0.066c0.002-0.022,0.014-0.042,0.014-0.065V92.898v-16.56C195.18,76.245,195.15,76.161,195.127,76.076z M127.594,72.323l5.653,3.015H82.682l6.507-3.015H127.594z M77.928,131.936v4.981v4.789H22.4v-14.559h55.527V131.936z M77.928,115.744v4.98v4.423H22.4v-14.56h55.527V115.744z M77.928,98.687v4.98v4.789H22.4V93.898h55.527V98.687z M77.928,82.494 v4.98v4.423H22.4v-14.56h55.527V82.494z M78.252,75.338H30.386l17.917-3.015h36.752L78.252,75.338z M135.513,131.936v4.981v4.789 H79.984v-14.559h55.528V131.936z M135.513,115.744v4.98v4.423H79.984v-14.56h55.528V115.744z M135.513,98.687v4.98v4.789H79.984 V93.898h55.528V98.687z M135.513,82.494v4.98v4.423H79.984v-14.56h55.528V82.494z M131.545,72.323h36.209l17.966,3.015h-48.157 L131.545,72.323z M193.18,131.936v4.981v4.789h-55.528v-14.559h55.528V131.936z M193.18,115.744v4.98v4.423h-55.528v-14.56h55.528 V115.744z M193.18,98.687v4.98v4.789h-55.528V93.898h55.528V98.687z M193.18,82.494v4.98v4.423h-55.528v-14.56h55.528V82.494z"></path> <circle fill="#010101" cx="27.424" cy="84.991" r="1.375"></circle> <circle fill="#010101" cx="32.303" cy="84.991" r="1.375"></circle> <path fill="#010101" d="M71.501,89h2.998C74.775,89,75,88.776,75,88.5v-8c0-0.276-0.225-0.5-0.501-0.5h-2.998 C71.225,80,71,80.224,71,80.5v8C71,88.776,71.225,89,71.501,89z M72,81h2v7h-2V81z"></path> <path fill="#010101" d="M65.5,89h3c0.276,0,0.5-0.224,0.5-0.5v-8c0-0.276-0.224-0.5-0.5-0.5h-3c-0.276,0-0.5,0.224-0.5,0.5v8 C65,88.776,65.224,89,65.5,89z M66,81h2v7h-2V81z"></path> <circle fill="#010101" cx="27.424" cy="101.991" r="1.375"></circle> <circle fill="#010101" cx="32.303" cy="101.991" r="1.375"></circle> <path fill="#010101" d="M71.501,106h2.998c0.276,0,0.501-0.224,0.501-0.5v-8c0-0.276-0.225-0.5-0.501-0.5h-2.998 C71.225,97,71,97.224,71,97.5v8C71,105.776,71.225,106,71.501,106z M72,98h2v7h-2V98z"></path> <path fill="#010101" d="M65.5,106h3c0.276,0,0.5-0.224,0.5-0.5v-8c0-0.276-0.224-0.5-0.5-0.5h-3c-0.276,0-0.5,0.224-0.5,0.5v8 C65,105.776,65.224,106,65.5,106z M66,98h2v7h-2V98z"></path> <circle fill="#010101" cx="27.424" cy="117.991" r="1.375"></circle> <circle fill="#010101" cx="32.303" cy="117.991" r="1.375"></circle> <path fill="#010101" d="M71.501,122h2.998c0.276,0,0.501-0.224,0.501-0.5v-8c0-0.276-0.225-0.5-0.501-0.5h-2.998 c-0.276,0-0.501,0.224-0.501,0.5v8C71,121.776,71.225,122,71.501,122z M72,114h2v7h-2V114z"></path> <path fill="#010101" d="M65.5,122h3c0.276,0,0.5-0.224,0.5-0.5v-8c0-0.276-0.224-0.5-0.5-0.5h-3c-0.276,0-0.5,0.224-0.5,0.5v8 C65,121.776,65.224,122,65.5,122z M66,114h2v7h-2V114z"></path> <circle fill="#010101" cx="27.424" cy="134.991" r="1.375"></circle> <circle fill="#010101" cx="32.303" cy="134.991" r="1.375"></circle> <path fill="#010101" d="M71.501,139h2.998c0.276,0,0.501-0.224,0.501-0.5v-8c0-0.276-0.225-0.5-0.501-0.5h-2.998 c-0.276,0-0.501,0.224-0.501,0.5v8C71,138.776,71.225,139,71.501,139z M72,131h2v7h-2V131z"></path> <path fill="#010101" d="M65.5,139h3c0.276,0,0.5-0.224,0.5-0.5v-8c0-0.276-0.224-0.5-0.5-0.5h-3c-0.276,0-0.5,0.224-0.5,0.5v8 C65,138.776,65.224,139,65.5,139z M66,131h2v7h-2V131z"></path> <circle fill="#010101" cx="85.424" cy="84.991" r="1.375"></circle> <circle fill="#010101" cx="90.303" cy="84.991" r="1.375"></circle> <path fill="#010101" d="M129.501,89h2.998c0.276,0,0.501-0.224,0.501-0.5v-8c0-0.276-0.225-0.5-0.501-0.5h-2.998 c-0.276,0-0.501,0.224-0.501,0.5v8C129,88.776,129.225,89,129.501,89z M130,81h2v7h-2V81z"></path> <path fill="#010101" d="M123.5,89h3c0.276,0,0.5-0.224,0.5-0.5v-8c0-0.276-0.224-0.5-0.5-0.5h-3c-0.276,0-0.5,0.224-0.5,0.5v8 C123,88.776,123.224,89,123.5,89z M124,81h2v7h-2V81z"></path> <circle fill="#010101" cx="85.424" cy="101.991" r="1.375"></circle> <circle fill="#010101" cx="90.303" cy="101.991" r="1.375"></circle> <path fill="#010101" d="M129.501,106h2.998c0.276,0,0.501-0.224,0.501-0.5v-8c0-0.276-0.225-0.5-0.501-0.5h-2.998 c-0.276,0-0.501,0.224-0.501,0.5v8C129,105.776,129.225,106,129.501,106z M130,98h2v7h-2V98z"></path> <path fill="#010101" d="M123.5,106h3c0.276,0,0.5-0.224,0.5-0.5v-8c0-0.276-0.224-0.5-0.5-0.5h-3c-0.276,0-0.5,0.224-0.5,0.5v8 C123,105.776,123.224,106,123.5,106z M124,98h2v7h-2V98z"></path> <circle fill="#010101" cx="85.424" cy="117.991" r="1.375"></circle> <circle fill="#010101" cx="90.303" cy="117.991" r="1.375"></circle> <path fill="#010101" d="M129.501,122h2.998c0.276,0,0.501-0.224,0.501-0.5v-8c0-0.276-0.225-0.5-0.501-0.5h-2.998 c-0.276,0-0.501,0.224-0.501,0.5v8C129,121.776,129.225,122,129.501,122z M130,114h2v7h-2V114z"></path> <path fill="#010101" d="M123.5,122h3c0.276,0,0.5-0.224,0.5-0.5v-8c0-0.276-0.224-0.5-0.5-0.5h-3c-0.276,0-0.5,0.224-0.5,0.5v8 C123,121.776,123.224,122,123.5,122z M124,114h2v7h-2V114z"></path> <circle fill="#010101" cx="85.424" cy="134.991" r="1.375"></circle> <circle fill="#010101" cx="90.303" cy="134.991" r="1.375"></circle> <path fill="#010101" d="M129.501,139h2.998c0.276,0,0.501-0.224,0.501-0.5v-8c0-0.276-0.225-0.5-0.501-0.5h-2.998 c-0.276,0-0.501,0.224-0.501,0.5v8C129,138.776,129.225,139,129.501,139z M130,131h2v7h-2V131z"></path> <path fill="#010101" d="M123.5,139h3c0.276,0,0.5-0.224,0.5-0.5v-8c0-0.276-0.224-0.5-0.5-0.5h-3c-0.276,0-0.5,0.224-0.5,0.5v8 C123,138.776,123.224,139,123.5,139z M124,131h2v7h-2V131z"></path> <circle fill="#010101" cx="142.424" cy="84.991" r="1.375"></circle> <circle fill="#010101" cx="147.303" cy="84.991" r="1.375"></circle> <path fill="#010101" d="M186.501,89h2.998c0.276,0,0.501-0.224,0.501-0.5v-8c0-0.276-0.225-0.5-0.501-0.5h-2.998 c-0.276,0-0.501,0.224-0.501,0.5v8C186,88.776,186.225,89,186.501,89z M187,81h2v7h-2V81z"></path> <path fill="#010101" d="M180.5,89h3c0.276,0,0.5-0.224,0.5-0.5v-8c0-0.276-0.224-0.5-0.5-0.5h-3c-0.276,0-0.5,0.224-0.5,0.5v8 C180,88.776,180.224,89,180.5,89z M181,81h2v7h-2V81z"></path> <circle fill="#010101" cx="142.424" cy="101.991" r="1.375"></circle> <circle fill="#010101" cx="147.303" cy="101.991" r="1.375"></circle> <path fill="#010101" d="M186.501,106h2.998c0.276,0,0.501-0.224,0.501-0.5v-8c0-0.276-0.225-0.5-0.501-0.5h-2.998 c-0.276,0-0.501,0.224-0.501,0.5v8C186,105.776,186.225,106,186.501,106z M187,98h2v7h-2V98z"></path> <path fill="#010101" d="M180.5,106h3c0.276,0,0.5-0.224,0.5-0.5v-8c0-0.276-0.224-0.5-0.5-0.5h-3c-0.276,0-0.5,0.224-0.5,0.5v8 C180,105.776,180.224,106,180.5,106z M181,98h2v7h-2V98z"></path> <circle fill="#010101" cx="142.424" cy="117.991" r="1.375"></circle> <circle fill="#010101" cx="147.303" cy="117.991" r="1.375"></circle> <path fill="#010101" d="M186.501,122h2.998c0.276,0,0.501-0.224,0.501-0.5v-8c0-0.276-0.225-0.5-0.501-0.5h-2.998 c-0.276,0-0.501,0.224-0.501,0.5v8C186,121.776,186.225,122,186.501,122z M187,114h2v7h-2V114z"></path> <path fill="#010101" d="M180.5,122h3c0.276,0,0.5-0.224,0.5-0.5v-8c0-0.276-0.224-0.5-0.5-0.5h-3c-0.276,0-0.5,0.224-0.5,0.5v8 C180,121.776,180.224,122,180.5,122z M181,114h2v7h-2V114z"></path> <circle fill="#010101" cx="142.424" cy="134.991" r="1.375"></circle> <circle fill="#010101" cx="147.303" cy="134.991" r="1.375"></circle> <path fill="#010101" d="M186.501,139h2.998c0.276,0,0.501-0.224,0.501-0.5v-8c0-0.276-0.225-0.5-0.501-0.5h-2.998 c-0.276,0-0.501,0.224-0.501,0.5v8C186,138.776,186.225,139,186.501,139z M187,131h2v7h-2V131z"></path> <path fill="#010101" d="M180.5,139h3c0.276,0,0.5-0.224,0.5-0.5v-8c0-0.276-0.224-0.5-0.5-0.5h-3c-0.276,0-0.5,0.224-0.5,0.5v8 C180,138.776,180.224,139,180.5,139z M181,131h2v7h-2V131z"></path> </g> </svg> 