<?xml version="1.0"?>
<svg id="Layer_1" data-name="Layer 1" xmlns="http://www.w3.org/2000/svg" viewBox="0 0 376 145" width="376" height="145"><defs><style>.cls-1{fill:#e00;}</style></defs><title>RedHat-Logo-C-Color</title><path d="M157.77,62.61a14,14,0,0,1,.31,3.42c0,14.88-18.1,17.46-30.61,17.46C78.83,83.49,42.53,53.26,42.53,44a6.43,6.43,0,0,1,.22-1.94l-3.66,9.06a18.45,18.45,0,0,0-1.51,7.33c0,18.11,41,45.48,87.74,45.48,20.69,0,36.43-7.76,36.43-21.77,0-1.08,0-1.94-1.73-10.13Z"></path><path class="cls-1" d="M127.47,83.49c12.51,0,30.61-2.58,30.61-17.46a14,14,0,0,0-.31-3.42l-7.45-32.36c-1.72-7.12-3.23-10.35-15.73-16.6C124.89,8.69,103.76.5,97.51.5,91.69.5,90,8,83.06,8c-6.68,0-11.64-5.6-17.89-5.6-6,0-9.91,4.09-12.93,12.5,0,0-8.41,23.72-9.49,27.16A6.43,6.43,0,0,0,42.53,44c0,9.22,36.3,39.45,84.94,39.45M160,72.07c1.73,8.19,1.73,9.05,1.73,10.13,0,14-15.74,21.77-36.43,21.77C78.54,104,37.58,76.6,37.58,58.49a18.45,18.45,0,0,1,1.51-7.33C22.27,52,.5,55,.5,74.22c0,31.48,74.59,70.28,133.65,70.28,45.28,0,56.7-20.48,56.7-36.65,0-12.72-11-27.16-30.83-35.78"></path><path d="M361.35,101c0,5.16,3.11,7.67,8.76,7.67a22.68,22.68,0,0,0,5.16-.73v-6a10.86,10.86,0,0,1-3.33.5c-2.33,0-3.19-.73-3.19-2.92V90.36h6.75V84.2h-6.75V76.39l-7.4,1.6V84.2h-4.88v6.16h4.88Zm-23,.14c0-1.6,1.59-2.38,4-2.38a18.47,18.47,0,0,1,4.38.55v3.11a9.34,9.34,0,0,1-4.6,1.14c-2.38,0-3.79-.92-3.79-2.42m2.25,7.62a11.36,11.36,0,0,0,6.67-1.87v1.46h7.3V92.87c0-5.89-4-9.13-10.59-9.13a26.83,26.83,0,0,0-11.27,2.65l2.65,5.43a19.62,19.62,0,0,1,7.3-1.92c3.05,0,4.61,1.19,4.61,3.61v1.18a21.77,21.77,0,0,0-5.48-.68c-6.21,0-9.95,2.6-9.95,7.25,0,4.25,3.38,7.49,8.76,7.49m-40.11-.41h7.85V95.83h13.14v12.51h7.85V76.39h-7.85V88.67H308.37V76.39h-7.85Zm-29.91-12.1A6.11,6.11,0,0,1,277,90.13,7.46,7.46,0,0,1,282.06,92v8.44a7.09,7.09,0,0,1-5.11,1.92,6.14,6.14,0,0,1-6.34-6.12m11.54,12.1h7.3V74.79l-7.39,1.6v9.08a12.44,12.44,0,1,0-6.39,23.19,10.86,10.86,0,0,0,6.48-2.1ZM248.66,89.81a5.34,5.34,0,0,1,5.06,3.83H243.64a5,5,0,0,1,5-3.83M236.2,96.29c0,7,5.75,12.5,13.14,12.5a14.48,14.48,0,0,0,10.09-3.65l-4.89-4.33a6.56,6.56,0,0,1-4.84,1.82,6.24,6.24,0,0,1-5.93-3.83H261V97c0-7.66-5.16-13.18-12.19-13.18a12.39,12.39,0,0,0-12.59,12.5M223.46,83.1c2.61,0,4.07,1.64,4.07,3.61s-1.46,3.6-4.07,3.6h-7.75V83.1Zm-15.6,25.24h7.85V96.7h6l6,11.64h8.76l-7-12.78a9.67,9.67,0,0,0,6-9c0-5.75-4.52-10.18-11.28-10.18H207.86Z"></path></svg>