<?xml version="1.0"?>

<!-- Generator: Adobe Illustrator 20.1.0, SVG Export Plug-In . SVG Version: 6.00 Build 0) -->
<svg version="1.1" id="logo" xmlns="http://www.w3.org/2000/svg" xmlns:xlink="http://www.w3.org/1999/xlink" x="0px" y="0px" viewBox="0 0 144 144" style="enable-background:new 0 0 144 144;" xml:space="preserve" width="144" height="144">
<style type="text/css"> .st0{fill:#FFFFFF;}
</style>
<g> <path class="st0" d="M91.1,61.8c0,0.4,0,0.8,0,1.3c0,12.8-9.7,27.6-27.6,27.6c-5.5,0-10.6-1.6-14.8-4.4c0.8,0.1,1.5,0.1,2.3,0.1 c4.5,0,8.7-1.5,12-4.1c-4.2-0.1-7.8-2.9-9-6.7c0.6,0.1,1.2,0.2,1.8,0.2c0.9,0,1.7-0.1,2.6-0.3c-4.4-0.9-7.8-4.8-7.8-9.5 c0,0,0-0.1,0-0.1c1.3,0.7,2.8,1.2,4.4,1.2c-2.6-1.7-4.3-4.7-4.3-8.1c0-1.8,0.5-3.4,1.3-4.9c4.8,5.9,11.9,9.7,20,10.1 c-0.2-0.7-0.3-1.4-0.3-2.2c0-5.3,4.3-9.7,9.7-9.7c2.8,0,5.3,1.2,7.1,3.1c2.2-0.4,4.3-1.2,6.1-2.4c-0.7,2.3-2.3,4.2-4.3,5.4 c2-0.2,3.8-0.8,5.6-1.5C94.6,58.7,93,60.4,91.1,61.8z"></path>
</g>
</svg>
