<?xml version="1.0"?>

<!-- Generator: Adobe Illustrator 20.1.0, SVG Export Plug-In . SVG Version: 6.00 Build 0) -->
<svg version="1.1" id="Layer_1" xmlns="http://www.w3.org/2000/svg" xmlns:xlink="http://www.w3.org/1999/xlink" x="0px" y="0px" viewBox="0 0 144 144" style="enable-background:new 0 0 144 144;" xml:space="preserve" width="144" height="144">
<style type="text/css"> .st0{fill:#FFFFFF;}
</style>
<g id="Lozenge">
</g>
<path class="st0" d="M93.3,63.1c0,0-0.4-3-1.7-4.3c-1.7-1.7-3.5-1.7-4.4-1.8C81.1,56.5,72,56.5,72,56.5h0c0,0-9.1,0-15.2,0.4 c-0.8,0.1-2.7,0.1-4.4,1.8c-1.3,1.3-1.7,4.3-1.7,4.3s-0.4,3.5-0.4,7v3.3c0,3.5,0.4,7,0.4,7s0.4,3,1.7,4.3c1.7,1.7,3.8,1.7,4.8,1.9 c3.5,0.3,14.8,0.4,14.8,0.4s9.1,0,15.2-0.5c0.8-0.1,2.7-0.1,4.4-1.8c1.3-1.3,1.7-4.3,1.7-4.3s0.4-3.5,0.4-7v-3.3 C93.7,66.6,93.3,63.1,93.3,63.1z M67.5,77.4l0-12.2l11.7,6.1L67.5,77.4z"></path>
</svg>
