<?xml version="1.0"?>

<!-- Generator: Adobe Illustrator 20.1.0, SVG Export Plug-In . SVG Version: 6.00 Build 0) -->
<svg version="1.1" id="Layer_1" xmlns="http://www.w3.org/2000/svg" xmlns:xlink="http://www.w3.org/1999/xlink" x="0px" y="0px" viewBox="0 0 144 144" style="enable-background:new 0 0 144 144;" xml:space="preserve" width="144" height="144">
<style type="text/css"> .st0{fill:#FFFFFF;}
</style>
<g> <rect x="46.7" y="63" class="st0" width="10.7" height="34.4"></rect> <path class="st0" d="M52,58.3c-3.4,0-6.2-2.8-6.2-6.2c0-3.4,2.8-6.2,6.2-6.2c3.4,0,6.2,2.8,6.2,6.2C58.2,55.5,55.4,58.3,52,58.3z"></path> <path class="st0" d="M97.3,97.4H86.7V80.6c0-4-0.1-9.1-5.6-9.1c-5.6,0-6.4,4.3-6.4,8.8v17H64.1V63h10.2v4.7h0.1 c1.4-2.7,4.9-5.5,10.1-5.5c10.8,0,12.8,7.1,12.8,16.4V97.4z"></path>
</g>
</svg>
